<svg height="383.998pt" viewBox="0 0 383.998 383.998" width="383.998pt" xmlns="http://www.w3.org/2000/svg"><path d="m356.6875 4.6875-36.6875 36.6875-20.6875-20.6875c-5.511719-5.523438-14.183594-6.265625-20.570312-1.738281l-54.773438 38.839843c-17.535156-6.222656-36.320312-9.792968-55.96875-9.792968-92.640625 0-168 75.363281-168 168 0 92.632812 75.359375 168 168 168 92.632812 0 168-75.367188 168-168 0-19.644532-3.566406-38.429688-9.792969-55.964844l38.839844-54.785156c4.503906-6.359375 3.777344-15.046875-1.742187-20.566406l-20.679688-20.683594 36.6875-36.6875c6.246094-6.246094 6.246094-16.375 0-22.621094-6.25-6.25-16.375-6.25-22.625 0zm-188.6875 347.308594c-74.992188 0-136-61.007813-136-136 0-74.988282 61.007812-136 136-136s136 61.011718 136 136c0 74.992187-61.007812 136-136 136zm142.3125-224.863282c-13.542969-21.613281-31.832031-39.894531-53.441406-53.4375l29.367187-20.824218 44.898438 44.894531zm0 0"/><path d="m168 111.996094c-57.34375 0-104 46.65625-104 104 0 8.832031 7.167969 16 16 16s16-7.167969 16-16c0-39.695313 32.304688-72 72-72 8.832031 0 16-7.167969 16-16 0-8.832032-7.167969-16-16-16zm0 0"/></svg>