<?xml version="1.0" encoding="iso-8859-1"?>
<!-- Generator: Adobe Illustrator 19.0.0, SVG Export Plug-In . SVG Version: 6.00 Build 0)  -->
<svg version="1.1" id="Capa_1" xmlns="http://www.w3.org/2000/svg" xmlns:xlink="http://www.w3.org/1999/xlink" x="0px" y="0px"
	 viewBox="0 0 503.22 503.22" style="enable-background:new 0 0 503.22 503.22;" xml:space="preserve">
<g>
	<g>
		<g>
			<path  fill="white" d="M398.18,134.946c-39.624-37.527-92.141-58.415-146.716-58.353c-117.644-0.18-213.159,95.043-213.34,212.687
				c-0.084,54.604,20.805,107.155,58.353,146.801l-30.763,30.763l30.165,30.165l32.875-32.875
				c73.475,52.114,171.858,52.114,245.333,0l32.875,32.875l30.165-30.165l-30.763-30.763
				C487.262,350.665,483.597,215.842,398.18,134.946z M272.798,459.121v-41.195h-42.667v41.195
				C152.91,449.284,92.107,388.481,82.27,311.26h41.195v-42.667H82.27c9.837-77.221,70.64-138.024,147.861-147.861v41.195h42.667
				v-41.195c77.221,9.837,138.024,70.64,147.861,147.861h-41.195v42.667h41.195C410.822,388.481,350.019,449.284,272.798,459.121z"
				/>
			<path fill="white" d="M489.225,54.769c-2.346-16.825-11.326-32.013-24.939-42.176c-28.354-20.903-68.233-15.206-89.6,12.8l-12.8,17.067
				c-6.877,9.474-4.988,22.697,4.267,29.867l68.267,51.2c19.541,14.635,32.875-8.235,42.667-21.333
				C487.302,88.64,491.673,71.564,489.225,54.769z M442.931,76.593l-34.133-25.6c7.069-9.426,20.441-11.336,29.867-4.267
				C448.09,53.796,450.001,67.168,442.931,76.593z"/>
			<path fill="white" d="M55.774,127.793c4.616,0,9.107-1.497,12.8-4.267l68.267-51.2c9.255-7.17,11.144-20.393,4.267-29.867l-12.8-17.067
				c-21.373-27.996-61.243-33.691-89.6-12.8c-27.985,21.38-33.679,61.24-12.8,89.6l12.8,17.067
				C42.736,124.632,49.059,127.793,55.774,127.793z M64.265,46.727h0.043c9.426-7.069,22.797-5.159,29.867,4.267l-34.176,25.6
				C52.929,67.168,54.839,53.796,64.265,46.727z"/>
			<path fill="white" d="M248.755,262.471l-49.451-32.96l-23.68,35.499l64,42.667c3.506,2.338,7.626,3.585,11.84,3.584
				c5.657-0.001,11.083-2.25,15.083-6.251l85.333-85.333l-30.165-30.165L248.755,262.471z"/>
		</g>
	</g>
</g>
<g>
</g>
<g>
</g>
<g>
</g>
<g>
</g>
<g>
</g>
<g>
</g>
<g>
</g>
<g>
</g>
<g>
</g>
<g>
</g>
<g>
</g>
<g>
</g>
<g>
</g>
<g>
</g>
<g>
</g>
</svg>
