<svg width="59" height="74" viewBox="0 0 59 74" fill="none" xmlns="http://www.w3.org/2000/svg">
<path fill-rule="evenodd" clip-rule="evenodd" d="M5.3729 2.9511C5.1019 1.4851 3.6929 0.515102 2.2269 0.787102C0.7609 1.0581 -0.2081 2.4661 0.0629003 3.9321L12.5179 71.3331C12.7579 72.6341 13.8929 73.5431 15.1699 73.5431C15.3329 73.5431 15.4979 73.5281 15.6639 73.4971C17.1299 73.2261 18.0989 71.8181 17.8279 70.3521L5.3729 2.9511Z" fill="brown"/>
<path fill-rule="evenodd" clip-rule="evenodd" d="M19.4313 38.7941L14.2273 10.6331L48.4383 18.8721L19.4313 38.7941ZM56.2963 15.2111L7.4063 3.4361L15.6323 47.9541L57.0863 19.4841C58.7833 18.3191 58.2983 15.6931 56.2963 15.2111V15.2111Z" fill="brown"/>
</svg>
